Coordinates
version=1
nRows=15
nColumns=19
inDegrees=yes

Units are S.I. units (second, meters, Newtons, ...)
If the header above contains a line with 'inDegrees', this indicates whether rotational values are in degrees (yes) or radians (no).

endheader
time	pelvis_tilt	pelvis_list	pelvis_rotation	pelvis_tx	pelvis_ty	pelvis_tz	hip_flexion_r	hip_adduction_r	hip_rotation_r	knee_angle_r	knee_angle_r_beta	ankle_angle_r	hip_flexion_l	hip_adduction_l	hip_rotation_l	knee_angle_l	knee_angle_l_beta	ankle_angle_l
     15.27333333	     -8.95015649	     -3.02756284	     -3.89521532	      2.18345226	      1.09199503	      1.03680105	     23.08558916	      5.83556653	     -7.58141308	      6.46687109	      0.11286819	     -3.21978485	     -4.55074594	    -13.63823818	    -18.97644339	     56.07400117	      0.97867595	     -6.32660140
     15.28000000	     -8.76362312	     -3.14711397	     -4.05903946	      2.18247491	      1.08738336	      1.03743833	     23.61747982	      5.85710039	     -8.14022617	      8.93814090	      0.15599999	     -2.70573492	     -3.77485987	    -13.74676799	    -17.62174919	     59.25202010	      1.03414284	     -6.36891609
     15.28666667	     -8.61667161	     -3.25742686	     -4.25710558	      2.18134575	      1.08226343	      1.03795437	     24.31552279	      5.81856982	     -8.72062834	     11.83033576	      0.20647831	     -1.93491952	     -2.90462374	    -13.80876439	    -16.34670152	     62.45116043	      1.08997837	     -6.46362315
     15.29333333	     -8.50381819	     -3.31772203	     -4.43467291	      2.18011282	      1.07672543	      1.03823629	     25.13150113	      5.66433987	     -9.25585611	     15.03370333	      0.26238762	     -0.87553678	     -1.92837817	    -13.77075173	    -15.08961402	     65.64408900	      1.14570549	     -6.57529683
     15.30000000	     -8.42548364	     -3.35265791	     -4.58469177	      2.17875286	      1.07079927	      1.03836442	     26.02038602	      5.43775957	     -9.72028924	     18.41701690	      0.32143758	      0.46465087	     -0.84586111	    -13.68194654	    -13.86542993	     68.82902843	      1.20129317	     -6.66888509
     15.30666667	     -8.38005734	     -3.34169158	     -4.71819777	      2.17727766	      1.06457291	      1.03839327	     26.94730215	      5.15669032	    -10.00263567	     21.88960458	      0.38204567	      2.11030008	      0.33068219	    -13.53117098	    -12.70330797	     71.97514560	      1.25620327	     -6.74816666
     15.31333333	     -8.41647138	     -3.32040689	     -4.81860388	      2.17568197	      1.05806415	      1.03831256	     27.92147082	      4.87560489	    -10.11541681	     25.33555373	      0.44218883	      3.98508405	      1.66192698	    -13.38023434	    -11.59447710	     75.08933170	      1.31055607	     -6.75279142
     15.32000000	     -8.49836887	     -3.26000374	     -4.86722750	      2.17390756	      1.05147051	      1.03821675	     28.88252857	      4.58295275	    -10.06546570	     28.68257482	      0.50060537	      6.06277929	      3.12554192	    -13.18823526	    -10.50375584	     78.13920346	      1.36378638	     -6.67551773
     15.32666667	     -8.72420865	     -3.16609804	     -4.86072999	      2.17202431	      1.04482203	      1.03810579	     29.89418806	      4.30448490	     -9.85954756	     31.84543758	      0.55580774	      8.22576574	      4.82476684	    -12.97124200	     -9.41685730	     81.10399118	      1.41553168	     -6.53495799
     15.33333333	     -9.02345785	     -3.08726963	     -4.78138047	      2.16998984	      1.03832542	      1.03800974	     30.84373453	      4.07706705	     -9.59340029	     34.74328406	      0.60638470	     10.42241494	      6.69345912	    -12.78702655	     -8.32800676	     83.97480140	      1.46563677	     -6.29027690
     15.34000000	     -9.38480592	     -2.99483002	     -4.63164025	      2.16781735	      1.03213780	      1.03791953	     31.70419824	      3.86580724	     -9.28413639	     37.34478868	      0.65178952	     12.58864253	      8.71847536	    -12.58039102	     -7.22574467	     86.70873570	      1.51335293	     -5.97851812
     15.34666667	     -9.82009058	     -2.94393805	     -4.38413094	      2.16558767	      1.02638223	      1.03779956	     32.44185979	      3.70274160	     -9.01951723	     39.58108283	      0.69082022	     14.64705861	     10.91118514	    -12.40302857	     -6.07276421	     89.28710703	      1.55835400	     -5.58555569
     15.35333333	    -10.24751725	     -2.91934740	     -4.04184483	      2.16325567	      1.02124383	      1.03763819	     32.97645561	      3.52631124	     -8.87858925	     41.46716610	      0.72373858	     16.52316816	     13.18588519	    -12.22633079	     -4.88898230	     91.67844495	      1.60009072	     -5.18626912
     15.36000000	    -10.67201031	     -2.94747620	     -3.64311055	      2.16094810	      1.01679147	      1.03745222	     33.29124171	      3.38115052	     -8.84839507	     42.97270046	      0.75001511	     18.20729090	     15.50569275	    -12.07881085	     -3.71149919	     93.84099007	      1.63783425	     -4.76917471
     15.36666667	    -10.97265360	     -3.03157498	     -3.18719564	      2.15875673	      1.01329317	      1.03722451	     33.23128635	      3.27174334	     -8.90286821	     44.05649614	      0.76893091	     19.69890080	     17.71754579	    -11.94230743	     -2.54703787	     95.72928085	      1.67079114	     -4.28302047
